<svg width="512" height="512" viewBox="0 0 512 512" fill="none" xmlns="http://www.w3.org/2000/svg" role="img" aria-labelledby="title desc">
  <title id="title">SlideStage Pro mark on dark</title>
  <desc id="desc">A geometric stage mark with a Pro platform symbol for SlideStage Pro on a dark tile.</desc>
  <defs>
    <linearGradient id="tile" x1="64" y1="56" x2="448" y2="456" gradientUnits="userSpaceOnUse">
      <stop stop-color="#111827"/>
      <stop offset="1" stop-color="#020617"/>
    </linearGradient>
    <linearGradient id="screen" x1="126" y1="126" x2="326" y2="292" gradientUnits="userSpaceOnUse">
      <stop stop-color="#FFFFFF"/>
      <stop offset="1" stop-color="#E0E7FF"/>
    </linearGradient>
    <linearGradient id="proStroke" x1="214" y1="164" x2="348" y2="296" gradientUnits="userSpaceOnUse">
      <stop stop-color="#6366F1"/>
      <stop offset="1" stop-color="#0891B2"/>
    </linearGradient>
    <filter id="shadow" x="61" y="69" width="390" height="365" color-interpolation-filters="sRGB" filterUnits="userSpaceOnUse">
      <feDropShadow dx="0" dy="16" stdDeviation="18" flood-color="#000000" flood-opacity="0.26"/>
    </filter>
  </defs>
  <rect x="40" y="40" width="432" height="432" rx="96" fill="url(#tile)"/>
  <g filter="url(#shadow)">
    <rect x="118" y="118" width="276" height="216" rx="34" fill="#818CF8" opacity="0.18" transform="rotate(7 256 226)"/>
    <rect x="94" y="96" width="300" height="236" rx="38" fill="#FFFFFF" opacity="0.1" transform="rotate(-7 244 214)"/>
    <path d="M104 138C104 113.699 123.699 94 148 94H364C388.301 94 408 113.699 408 138V302C408 326.301 388.301 346 364 346H148C123.699 346 104 326.301 104 302V138Z" fill="#F8FAFC"/>
    <path d="M136 146C136 134.954 144.954 126 156 126H356C367.046 126 376 134.954 376 146V262C376 273.046 367.046 282 356 282H156C144.954 282 136 273.046 136 262V146Z" fill="url(#screen)"/>
    <path d="M256 130L170 282H342L256 130Z" fill="#F59E0B" opacity="0.22"/>
    <path d="M218 300V166H282C322 166 350 190 350 226C350 262 322 286 282 286H238" stroke="url(#proStroke)" stroke-width="33" stroke-linecap="round" stroke-linejoin="round"/>
    <path d="M324 180L356 156L388 180" stroke="#F59E0B" stroke-width="18" stroke-linecap="round" stroke-linejoin="round"/>
    <circle cx="356" cy="156" r="14" fill="#F59E0B"/>
    <path d="M156 314H356" stroke="#F59E0B" stroke-width="20" stroke-linecap="round"/>
    <path d="M188 350H324" stroke="#F8FAFC" stroke-width="24" stroke-linecap="round"/>
  </g>
</svg>
