<svg width="1040" height="360" viewBox="0 0 1040 360" fill="none" xmlns="http://www.w3.org/2000/svg" role="img" aria-labelledby="title desc">
  <title id="title">SlideStage Pro horizontal logo with tagline</title>
  <desc id="desc">SlideStage Pro horizontal logo with a short product line.</desc>
  <defs>
    <linearGradient id="screen" x1="96.7" y1="91.1" x2="188.8" y2="167.6" gradientUnits="userSpaceOnUse">
      <stop stop-color="#FFFFFF"/>
      <stop offset="1" stop-color="#EEF2FF"/>
    </linearGradient>
    <linearGradient id="proStroke" x1="136" y1="107" x2="199" y2="169" gradientUnits="userSpaceOnUse">
      <stop stop-color="#4F46E5"/>
      <stop offset="1" stop-color="#06B6D4"/>
    </linearGradient>
    <filter id="shadow" x="45" y="48" width="430" height="414" color-interpolation-filters="sRGB" filterUnits="userSpaceOnUse">
      <feDropShadow dx="0" dy="10" stdDeviation="14" flood-color="#0F172A" flood-opacity="0.14"/>
    </filter>
  </defs>
  <g filter="url(#shadow)" transform="translate(36 30) scale(0.47)">
    <rect x="118" y="118" width="276" height="216" rx="34" fill="#4F46E5" opacity="0.18" transform="rotate(7 256 226)"/>
    <rect x="94" y="96" width="300" height="236" rx="38" fill="#111827" opacity="0.14" transform="rotate(-7 244 214)"/>
    <path d="M104 138C104 113.699 123.699 94 148 94H364C388.301 94 408 113.699 408 138V302C408 326.301 388.301 346 364 346H148C123.699 346 104 326.301 104 302V138Z" fill="#111827"/>
    <path d="M136 146C136 134.954 144.954 126 156 126H356C367.046 126 376 134.954 376 146V262C376 273.046 367.046 282 356 282H156C144.954 282 136 273.046 136 262V146Z" fill="url(#screen)"/>
    <path d="M256 130L170 282H342L256 130Z" fill="#F59E0B" opacity="0.18"/>
    <path d="M218 300V166H282C322 166 350 190 350 226C350 262 322 286 282 286H238" stroke="url(#proStroke)" stroke-width="33" stroke-linecap="round" stroke-linejoin="round"/>
    <path d="M324 180L356 156L388 180" stroke="#F59E0B" stroke-width="18" stroke-linecap="round" stroke-linejoin="round"/>
    <circle cx="356" cy="156" r="14" fill="#F59E0B"/>
    <path d="M156 314H356" stroke="#F59E0B" stroke-width="20" stroke-linecap="round"/>
    <path d="M188 350H324" stroke="#111827" stroke-width="24" stroke-linecap="round"/>
  </g>
  <text x="320" y="145" fill="#101828" font-family="Inter, ui-sans-serif, -apple-system, BlinkMacSystemFont, 'Segoe UI', sans-serif" font-size="82" font-weight="760" letter-spacing="0">SlideStage<tspan fill="#4F46E5">Pro</tspan></text>
  <path d="M326 181H836" stroke="#F59E0B" stroke-width="10" stroke-linecap="round"/>
  <text x="322" y="232" fill="#475467" font-family="Inter, ui-sans-serif, -apple-system, BlinkMacSystemFont, 'Segoe UI', sans-serif" font-size="27" font-weight="520" letter-spacing="0">Self-hosted presentation platform for teams.</text>
</svg>
